<svg width="39" height="18" viewBox="0 0 39 18" fill="none" xmlns="http://www.w3.org/2000/svg">
<rect x="0.5" y="1.16667" width="38" height="16" fill="#F9D03F"/>
<path d="M30.3536 9.02023C30.5488 8.82496 30.5488 8.50838 30.3536 8.31312L27.1716 5.13114C26.9763 4.93588 26.6597 4.93588 26.4645 5.13114C26.2692 5.3264 26.2692 5.64298 26.4645 5.83824L29.2929 8.66667L26.4645 11.4951C26.2692 11.6904 26.2692 12.0069 26.4645 12.2022C26.6597 12.3975 26.9763 12.3975 27.1716 12.2022L30.3536 9.02023ZM9 9.16667L30 9.16667L30 8.16667L9 8.16667L9 9.16667Z" fill="black"/>
<rect x="0.5" y="1.16667" width="38" height="16" stroke="black"/>
</svg>
